<?xml version="1.0" encoding="UTF-8" standalone="no"?>
<svg
   xmlns:dc="http://purl.org/dc/elements/1.1/"
   xmlns:cc="http://creativecommons.org/ns#"
   xmlns:rdf="http://www.w3.org/1999/02/22-rdf-syntax-ns#"
   xmlns:svg="http://www.w3.org/2000/svg"
   xmlns="http://www.w3.org/2000/svg"
   id="svg872"
   version="1.1"
   viewBox="0 0 9.335 9.8310003"
   height="auto"
   width="100%"
   preserveAspectRatio="none"
>
  <g
     transform="translate(0,-287.169)"
     id="layer1">
    <path
       id="path3666"
       style="color:#000000;fill:#000000;stroke:#000000;stroke-width:0.52916664"
       d="m 5.1784062,288.11254 c -0.707496,-0.13115 -3.172619,0.57287 -2.763573,0.5072 0.65913,-0.52085 -1.64652802,1.74162 -1.200229,2.77945 -0.31305502,2.84321 2.701396,4.48601 5.119423,4.77308 0.613939,0.0554 2.273485,-0.72892 0.859975,-0.0412 1.518814,-1.91907 1.118103,-5.05856 -0.49747,-6.85112 -1.01592,-0.6282 -2.97815,-2.03755 -0.862118,-1.82239 2.383896,1.09945 3.713692,3.90392 3.079485,6.44657 -0.08069,2.8284 -3.994943,3.5859 -5.944658,2.05158 -2.53158602,-0.83444 -3.45043102,-4.07591 -2.03565102,-6.23861 0.89611702,-1.59552 4.02034402,-2.42152 4.88235602,-2.06772 l -0.637725,0.46334 z" />
  </g>
</svg>
