<?xml version="1.0" encoding="UTF-8" standalone="no"?>
<svg
   xmlns:dc="http://purl.org/dc/elements/1.1/"
   xmlns:cc="http://creativecommons.org/ns#"
   xmlns:rdf="http://www.w3.org/1999/02/22-rdf-syntax-ns#"
   xmlns:svg="http://www.w3.org/2000/svg"
   xmlns="http://www.w3.org/2000/svg"
   id="svg1484"
   version="1.1"
   viewBox="0 0 9.1840001 9.8310005"
   height="auto"
   width="100%">
  <defs
     id="defs1478" />
  <metadata
     id="metadata1481">
    <rdf:RDF>
      <cc:Work
         rdf:about="">
        <dc:format>image/svg+xml</dc:format>
        <dc:type
           rdf:resource="http://purl.org/dc/dcmitype/StillImage" />
        <dc:title></dc:title>
      </cc:Work>
    </rdf:RDF>
  </metadata>
  <g
     transform="translate(0,-287.169)"
     id="layer1">
    <g
       id="g844"
       transform="matrix(0.21771502,0,0,0.25847309,-32.920858,178.16918)">
      <path
         d="m 156.82,423.18 c 13.997,8.0274 24.126,20.941 35.501,32.067 -5.0023,5.1446 -8.1484,-4.5391 -12.174,-7.0382 -7.8904,-8.6046 -16.21,-17.311 -26.646,-22.805 1.1062,-0.74112 2.2125,-1.4822 3.3187,-2.2234 z"
         style="color:#000000;fill:#000000;stroke:#000000;stroke-width:2"
         id="path3676" />
      <path
         d="m 189.24,422.86 c -7.959,10.161 -16.78,19.562 -26.069,28.517 -1.2818,3.5348 -13.126,11.787 -6.1696,4.3785 9.3163,-10.012 19.514,-19.264 27.705,-30.302 0.93428,-1.594 3.0327,-1.7455 4.5343,-2.5933 z"
         style="color:#000000;fill:#000000;stroke:#000000;stroke-width:2"
         id="path3678" />
    </g>
    <g
       id="g848"
       transform="matrix(0.26458333,0,0,0.26458333,-257.93141,-355.48556)">
      <path
         d="m 214.32,422.48 c 10.124,10.79 19.187,22.651 30.48,32.265 4.6849,4.3526 -3.8795,7.2545 -4.2151,1.162 -10.92,-9.415 -19.535,-21.124 -29.669,-31.341 1.1347,-0.69533 2.2694,-1.3907 3.404,-2.086 z"
         style="color:#000000;fill:#000000;stroke:#000000;stroke-width:2"
         id="path3668" />
      <path
         d="m 240.78,425.69 c -8.0268,7.5552 -17.969,13.122 -24.691,21.964 -0.3697,4.0065 -9.616,9.6592 -4.3193,2.7953 5.9022,-9.5559 16.436,-14.734 24.328,-22.444 1.2081,-1.3191 3.1301,-1.5485 4.6819,-2.3158 z"
         style="color:#000000;fill:#000000;stroke:#000000;stroke-width:2"
         id="path3670" />
    </g>
  </g>
</svg>
